<mxfile host="Electron" modified="2024-04-26T06:42:44.447Z" agent="Mozilla/5.0 (Macintosh; Intel Mac OS X 10_15_7) AppleWebKit/537.36 (KHTML, like Gecko) draw.io/24.2.5 Chrome/120.0.6099.109 Electron/28.1.0 Safari/537.36" etag="4yqYfjwzVZoa56YIm-bw" version="24.2.5" type="device">
  <diagram name="Architecture" id="zolivAVu69kZkYL54EoR">
    <mxGraphModel dx="2114" dy="1003" grid="0" gridSize="10" guides="1" tooltips="1" connect="1" arrows="1" fold="1" page="0" pageScale="1" pageWidth="1100" pageHeight="850" math="0" shadow="0">
      <root>
        <mxCell id="0" />
        <mxCell id="1" parent="0" />
        <mxCell id="AB4f2BiVTN-bENNyKC6I-20" value="" style="rounded=1;whiteSpace=wrap;html=1;sketch=1;hachureGap=4;jiggle=2;curveFitting=1;fontFamily=Architects Daughter;fontSource=https%3A%2F%2Ffonts.googleapis.com%2Fcss%3Ffamily%3DArchitects%2BDaughter;labelBackgroundColor=none;fillColor=#B2C9AB;strokeColor=#788AA3;fontColor=#46495D;" vertex="1" parent="1">
          <mxGeometry x="-478" y="140" width="592" height="949" as="geometry" />
        </mxCell>
        <mxCell id="AB4f2BiVTN-bENNyKC6I-2" value="" style="swimlane;startSize=0;sketch=1;hachureGap=4;jiggle=2;curveFitting=1;fontFamily=Architects Daughter;fontSource=https%3A%2F%2Ffonts.googleapis.com%2Fcss%3Ffamily%3DArchitects%2BDaughter;rounded=1;labelBackgroundColor=none;fillColor=#B2C9AB;strokeColor=#788AA3;fontColor=#46495D;" vertex="1" parent="1">
          <mxGeometry x="-458" y="371" width="539" height="348" as="geometry" />
        </mxCell>
        <mxCell id="AB4f2BiVTN-bENNyKC6I-3" value="&lt;font style=&quot;font-size: 40px;&quot;&gt;Spring&lt;/font&gt;" style="text;html=1;align=center;verticalAlign=middle;resizable=0;points=[];autosize=1;strokeColor=none;fillColor=none;fontSize=16;fontFamily=Architects Daughter;fontSource=https%3A%2F%2Ffonts.googleapis.com%2Fcss%3Ffamily%3DArchitects%2BDaughter;rounded=1;labelBackgroundColor=none;fontColor=#46495D;" vertex="1" parent="AB4f2BiVTN-bENNyKC6I-2">
          <mxGeometry x="129" y="109" width="135" height="60" as="geometry" />
        </mxCell>
        <mxCell id="AB4f2BiVTN-bENNyKC6I-5" value="&lt;font style=&quot;font-size: 30px;&quot;&gt;Security&lt;/font&gt;" style="rounded=1;whiteSpace=wrap;html=1;sketch=1;hachureGap=4;jiggle=2;curveFitting=1;fontFamily=Architects Daughter;fontSource=https%3A%2F%2Ffonts.googleapis.com%2Fcss%3Ffamily%3DArchitects%2BDaughter;direction=south;labelBackgroundColor=none;fillColor=#B2C9AB;strokeColor=#788AA3;fontColor=#46495D;" vertex="1" parent="AB4f2BiVTN-bENNyKC6I-2">
          <mxGeometry x="369" y="12" width="147" height="316" as="geometry" />
        </mxCell>
        <mxCell id="AB4f2BiVTN-bENNyKC6I-6" value="&lt;font style=&quot;font-size: 30px;&quot;&gt;Scheduler Tasks&lt;/font&gt;" style="rounded=1;whiteSpace=wrap;html=1;sketch=1;hachureGap=4;jiggle=2;curveFitting=1;fontFamily=Architects Daughter;fontSource=https%3A%2F%2Ffonts.googleapis.com%2Fcss%3Ffamily%3DArchitects%2BDaughter;labelBackgroundColor=none;fillColor=#B2C9AB;strokeColor=#788AA3;fontColor=#46495D;" vertex="1" parent="AB4f2BiVTN-bENNyKC6I-2">
          <mxGeometry x="25" y="207" width="323" height="116" as="geometry" />
        </mxCell>
        <mxCell id="AB4f2BiVTN-bENNyKC6I-16" value="" style="image;aspect=fixed;html=1;points=[];align=center;fontSize=12;image=img/lib/azure2/containers/App_Services.svg;sketch=1;hachureGap=4;jiggle=2;curveFitting=1;fontFamily=Architects Daughter;fontSource=https%3A%2F%2Ffonts.googleapis.com%2Fcss%3Ffamily%3DArchitects%2BDaughter;rounded=1;labelBackgroundColor=none;fillColor=#B2C9AB;strokeColor=#788AA3;fontColor=#46495D;" vertex="1" parent="AB4f2BiVTN-bENNyKC6I-2">
          <mxGeometry x="171" y="26" width="64" height="64" as="geometry" />
        </mxCell>
        <mxCell id="AB4f2BiVTN-bENNyKC6I-11" value="" style="shape=flexArrow;endArrow=classic;startArrow=classic;html=1;rounded=1;sketch=1;hachureGap=4;jiggle=2;curveFitting=1;fontFamily=Architects Daughter;fontSource=https%3A%2F%2Ffonts.googleapis.com%2Fcss%3Ffamily%3DArchitects%2BDaughter;fontSize=12;startSize=8;endSize=8;curved=1;labelBackgroundColor=none;strokeColor=#788AA3;fontColor=default;" edge="1" parent="1" source="AB4f2BiVTN-bENNyKC6I-18" target="AB4f2BiVTN-bENNyKC6I-2">
          <mxGeometry width="100" height="100" relative="1" as="geometry">
            <mxPoint x="-213.58685714285707" y="843" as="sourcePoint" />
            <mxPoint x="250" y="61" as="targetPoint" />
          </mxGeometry>
        </mxCell>
        <mxCell id="AB4f2BiVTN-bENNyKC6I-12" value="" style="fontColor=#46495D;verticalAlign=top;verticalLabelPosition=bottom;labelPosition=center;align=center;html=1;outlineConnect=0;fillColor=#B2C9AB;strokeColor=#788AA3;gradientDirection=north;strokeWidth=2;shape=mxgraph.networks.monitor;sketch=1;hachureGap=4;jiggle=2;curveFitting=1;fontFamily=Architects Daughter;fontSource=https%3A%2F%2Ffonts.googleapis.com%2Fcss%3Ffamily%3DArchitects%2BDaughter;rounded=1;labelBackgroundColor=none;" vertex="1" parent="1">
          <mxGeometry x="361" y="402" width="369" height="222" as="geometry" />
        </mxCell>
        <mxCell id="AB4f2BiVTN-bENNyKC6I-13" value="" style="shape=flexArrow;endArrow=classic;startArrow=classic;html=1;rounded=1;sketch=1;hachureGap=4;jiggle=2;curveFitting=1;fontFamily=Architects Daughter;fontSource=https%3A%2F%2Ffonts.googleapis.com%2Fcss%3Ffamily%3DArchitects%2BDaughter;fontSize=12;startSize=8;endSize=8;curved=1;labelBackgroundColor=none;strokeColor=#788AA3;fontColor=default;" edge="1" parent="1" source="AB4f2BiVTN-bENNyKC6I-12">
          <mxGeometry width="100" height="100" relative="1" as="geometry">
            <mxPoint x="259" y="521.0199657768651" as="sourcePoint" />
            <mxPoint x="68" y="519" as="targetPoint" />
          </mxGeometry>
        </mxCell>
        <mxCell id="AB4f2BiVTN-bENNyKC6I-14" value="&lt;font style=&quot;font-size: 40px;&quot;&gt;HTTP&lt;/font&gt;" style="text;html=1;align=center;verticalAlign=middle;resizable=0;points=[];autosize=1;strokeColor=none;fillColor=none;fontSize=16;fontFamily=Architects Daughter;fontSource=https%3A%2F%2Ffonts.googleapis.com%2Fcss%3Ffamily%3DArchitects%2BDaughter;rounded=1;labelBackgroundColor=none;fontColor=#46495D;" vertex="1" parent="1">
          <mxGeometry x="156" y="443" width="118" height="60" as="geometry" />
        </mxCell>
        <mxCell id="AB4f2BiVTN-bENNyKC6I-15" value="&lt;span style=&quot;font-size: 40px;&quot;&gt;Requests&lt;/span&gt;" style="text;html=1;align=center;verticalAlign=middle;resizable=0;points=[];autosize=1;strokeColor=none;fillColor=none;fontSize=16;fontFamily=Architects Daughter;fontSource=https%3A%2F%2Ffonts.googleapis.com%2Fcss%3Ffamily%3DArchitects%2BDaughter;rounded=1;labelBackgroundColor=none;fontColor=#46495D;" vertex="1" parent="1">
          <mxGeometry x="134" y="547" width="187" height="60" as="geometry" />
        </mxCell>
        <mxCell id="AB4f2BiVTN-bENNyKC6I-18" value="" style="image;aspect=fixed;html=1;points=[];align=center;fontSize=12;image=img/lib/azure2/databases/Azure_Database_PostgreSQL_Server.svg;sketch=1;hachureGap=4;jiggle=2;curveFitting=1;fontFamily=Architects Daughter;fontSource=https%3A%2F%2Ffonts.googleapis.com%2Fcss%3Ffamily%3DArchitects%2BDaughter;rounded=1;labelBackgroundColor=none;fillColor=#B2C9AB;strokeColor=#788AA3;fontColor=#46495D;" vertex="1" parent="1">
          <mxGeometry x="-256" y="859" width="142.5" height="190" as="geometry" />
        </mxCell>
        <mxCell id="AB4f2BiVTN-bENNyKC6I-21" value="" style="image;aspect=fixed;html=1;points=[];align=center;fontSize=12;image=img/lib/azure2/other/Azure_A.svg;sketch=1;hachureGap=4;jiggle=2;curveFitting=1;fontFamily=Architects Daughter;fontSource=https%3A%2F%2Ffonts.googleapis.com%2Fcss%3Ffamily%3DArchitects%2BDaughter;rounded=1;labelBackgroundColor=none;fillColor=#B2C9AB;strokeColor=#788AA3;fontColor=#46495D;" vertex="1" parent="1">
          <mxGeometry x="-247.69" y="187" width="163.38" height="154.06" as="geometry" />
        </mxCell>
      </root>
    </mxGraphModel>
  </diagram>
</mxfile>
